# xmcd CD database file
#
# Track frame offsets:
#	180
#	22297
#	51565
#	68480
#	84037
#	100462
#	119467
#
# Disc length: 1816 seconds
#
# Revision: 0
# Processed by: cddbd v1.4PL0 Copyright (c) Steve Scherf et al.
# Submitted via: CDex 1.51
#
DISCID=5b071607
DTITLE=Czerkinsky - Variations sur Natacha
DYEAR=1998
DGENRE=Français
TTITLE0=Le Monocle
TTITLE1=Roudoudou
TTITLE2=Avia
TTITLE3=Leicestser
TTITLE4=Czerkinsky
TTITLE5=Sporto Kantes
TTITLE6=Version originale
EXTD=YEAR: 1998
EXTT0=
EXTT1=
EXTT2=
EXTT3=
EXTT4=
EXTT5=
EXTT6=
PLAYORDER=
